<svg width="30" height="30" viewBox="0 0 30 30" fill="none" xmlns="http://www.w3.org/2000/svg">
<path fill-rule="evenodd" clip-rule="evenodd" d="M14.4247 27.9388C14.4624 27.9607 14.4921 27.9776 14.5131 27.9894L14.548 28.0089C14.8266 28.1618 15.1722 28.1606 15.4511 28.0094L15.4869 27.9894C15.5079 27.9776 15.5376 27.9607 15.5753 27.9388C15.6508 27.8951 15.7587 27.8313 15.8944 27.7477C16.1656 27.5807 16.5484 27.3345 17.0058 27.0114C17.9189 26.3664 19.1372 25.4093 20.3582 24.1592C22.7883 21.671 25.3125 17.9327 25.3125 13.125C25.3125 7.42956 20.6954 2.8125 15 2.8125C9.30456 2.8125 4.6875 7.42956 4.6875 13.125C4.6875 17.9327 7.21165 21.671 9.64182 24.1592C10.8628 25.4093 12.0811 26.3664 12.9942 27.0114C13.4516 27.3345 13.8344 27.5807 14.1056 27.7477C14.2413 27.8313 14.3492 27.8951 14.4247 27.9388ZM15 16.875C17.0711 16.875 18.75 15.1961 18.75 13.125C18.75 11.0539 17.0711 9.375 15 9.375C12.9289 9.375 11.25 11.0539 11.25 13.125C11.25 15.1961 12.9289 16.875 15 16.875Z" fill="white"/>
</svg>
