<svg width="30" height="30" viewBox="0 0 30 30" fill="none" xmlns="http://www.w3.org/2000/svg">
<path d="M4.6875 7.5C4.6875 5.9467 5.9467 4.6875 7.5 4.6875H10.3125C11.8658 4.6875 13.125 5.9467 13.125 7.5V10.3125C13.125 11.8658 11.8658 13.125 10.3125 13.125H7.5C5.9467 13.125 4.6875 11.8658 4.6875 10.3125V7.5Z" stroke="white" stroke-width="1.5" stroke-linecap="round" stroke-linejoin="round"/>
<path d="M4.6875 19.6875C4.6875 18.1342 5.9467 16.875 7.5 16.875H10.3125C11.8658 16.875 13.125 18.1342 13.125 19.6875V22.5C13.125 24.0533 11.8658 25.3125 10.3125 25.3125H7.5C5.9467 25.3125 4.6875 24.0533 4.6875 22.5V19.6875Z" stroke="white" stroke-width="1.5" stroke-linecap="round" stroke-linejoin="round"/>
<path d="M16.875 7.5C16.875 5.9467 18.1342 4.6875 19.6875 4.6875H22.5C24.0533 4.6875 25.3125 5.9467 25.3125 7.5V10.3125C25.3125 11.8658 24.0533 13.125 22.5 13.125H19.6875C18.1342 13.125 16.875 11.8658 16.875 10.3125V7.5Z" stroke="white" stroke-width="1.5" stroke-linecap="round" stroke-linejoin="round"/>
<path d="M16.875 19.6875C16.875 18.1342 18.1342 16.875 19.6875 16.875H22.5C24.0533 16.875 25.3125 18.1342 25.3125 19.6875V22.5C25.3125 24.0533 24.0533 25.3125 22.5 25.3125H19.6875C18.1342 25.3125 16.875 24.0533 16.875 22.5V19.6875Z" stroke="white" stroke-width="1.5" stroke-linecap="round" stroke-linejoin="round"/>
</svg>
